<mxfile host="app.diagrams.net" modified="2021-08-22T07:55:58.390Z" agent="5.0 (X11)" etag="HfJH0auLWwEvskWaZZNN" version="14.8.1" type="github">
  <diagram name="Page-1" id="e7e014a7-5840-1c2e-5031-d8a46d1fe8dd">
    <mxGraphModel dx="1517" dy="791" grid="1" gridSize="10" guides="1" tooltips="1" connect="1" arrows="1" fold="1" page="1" pageScale="1" pageWidth="1169" pageHeight="826" background="none" math="0" shadow="0">
      <root>
        <mxCell id="0" />
        <mxCell id="1" parent="0" />
        <mxCell id="2" value="Farmer" style="swimlane;whiteSpace=wrap" parent="1" vertex="1">
          <mxGeometry x="164.5" y="120" width="225.5" height="620" as="geometry" />
        </mxCell>
        <mxCell id="2xEB3IxOcom_yE4K_lx5-48" value="" style="edgeStyle=orthogonalEdgeStyle;rounded=0;orthogonalLoop=1;jettySize=auto;html=1;strokeColor=#000000;" parent="2" source="5" target="7" edge="1">
          <mxGeometry relative="1" as="geometry" />
        </mxCell>
        <mxCell id="5" value="" style="ellipse;shape=startState;fillColor=#000000;strokeColor=#ff0000;" parent="2" vertex="1">
          <mxGeometry x="100" y="40" width="30" height="30" as="geometry" />
        </mxCell>
        <mxCell id="2xEB3IxOcom_yE4K_lx5-47" style="edgeStyle=orthogonalEdgeStyle;rounded=0;orthogonalLoop=1;jettySize=auto;html=1;strokeColor=#000000;" parent="2" source="7" target="8" edge="1">
          <mxGeometry relative="1" as="geometry" />
        </mxCell>
        <mxCell id="7" value="Harvest" style="" parent="2" vertex="1">
          <mxGeometry x="60" y="110" width="110" height="40" as="geometry" />
        </mxCell>
        <mxCell id="2xEB3IxOcom_yE4K_lx5-45" style="edgeStyle=orthogonalEdgeStyle;rounded=0;orthogonalLoop=1;jettySize=auto;html=1;exitX=0.5;exitY=1;exitDx=0;exitDy=0;strokeColor=#000000;" parent="2" source="8" target="10" edge="1">
          <mxGeometry relative="1" as="geometry" />
        </mxCell>
        <mxCell id="8" value="Process" style="" parent="2" vertex="1">
          <mxGeometry x="60" y="190" width="110" height="40" as="geometry" />
        </mxCell>
        <mxCell id="2xEB3IxOcom_yE4K_lx5-58" style="edgeStyle=orthogonalEdgeStyle;rounded=0;orthogonalLoop=1;jettySize=auto;html=1;entryX=0.5;entryY=0;entryDx=0;entryDy=0;strokeColor=#000000;" parent="2" source="10" target="2xEB3IxOcom_yE4K_lx5-41" edge="1">
          <mxGeometry relative="1" as="geometry" />
        </mxCell>
        <mxCell id="10" value="Pack" style="" parent="2" vertex="1">
          <mxGeometry x="60" y="270" width="110" height="40" as="geometry" />
        </mxCell>
        <mxCell id="2xEB3IxOcom_yE4K_lx5-41" value="&lt;div&gt;Sell&lt;/div&gt;" style="whiteSpace=wrap;html=1;" parent="2" vertex="1">
          <mxGeometry x="58.75" y="360" width="112.5" height="40" as="geometry" />
        </mxCell>
        <mxCell id="3" value="Distributor" style="swimlane;whiteSpace=wrap" parent="1" vertex="1">
          <mxGeometry x="390" y="120" width="220" height="620" as="geometry" />
        </mxCell>
        <mxCell id="2xEB3IxOcom_yE4K_lx5-50" style="edgeStyle=orthogonalEdgeStyle;rounded=0;orthogonalLoop=1;jettySize=auto;html=1;entryX=0.5;entryY=0;entryDx=0;entryDy=0;strokeColor=#000000;" parent="3" source="13" target="18" edge="1">
          <mxGeometry relative="1" as="geometry" />
        </mxCell>
        <mxCell id="13" value="" style="ellipse;shape=startState;fillColor=#000000;strokeColor=#ff0000;" parent="3" vertex="1">
          <mxGeometry x="95" y="40" width="30" height="30" as="geometry" />
        </mxCell>
        <mxCell id="2xEB3IxOcom_yE4K_lx5-59" style="edgeStyle=orthogonalEdgeStyle;rounded=0;orthogonalLoop=1;jettySize=auto;html=1;entryX=0.5;entryY=0;entryDx=0;entryDy=0;strokeColor=#000000;" parent="3" source="18" target="2xEB3IxOcom_yE4K_lx5-56" edge="1">
          <mxGeometry relative="1" as="geometry" />
        </mxCell>
        <mxCell id="18" value="Buy" style="" parent="3" vertex="1">
          <mxGeometry x="55" y="355" width="110" height="50" as="geometry" />
        </mxCell>
        <mxCell id="2xEB3IxOcom_yE4K_lx5-56" value="Ship" style="" parent="3" vertex="1">
          <mxGeometry x="55" y="450" width="110" height="50" as="geometry" />
        </mxCell>
        <mxCell id="4" value="Retailer" style="swimlane;whiteSpace=wrap" parent="1" vertex="1">
          <mxGeometry x="610" y="120" width="220" height="620" as="geometry" />
        </mxCell>
        <mxCell id="33" value="Receive" style="" parent="4" vertex="1">
          <mxGeometry x="55" y="450" width="110" height="50" as="geometry" />
        </mxCell>
        <mxCell id="2xEB3IxOcom_yE4K_lx5-65" style="edgeStyle=orthogonalEdgeStyle;rounded=0;orthogonalLoop=1;jettySize=auto;html=1;entryX=0.5;entryY=0;entryDx=0;entryDy=0;strokeColor=#000000;" parent="4" source="2xEB3IxOcom_yE4K_lx5-62" target="33" edge="1">
          <mxGeometry relative="1" as="geometry" />
        </mxCell>
        <mxCell id="2xEB3IxOcom_yE4K_lx5-62" value="" style="ellipse;shape=startState;fillColor=#000000;strokeColor=#ff0000;" parent="4" vertex="1">
          <mxGeometry x="95" y="40" width="30" height="30" as="geometry" />
        </mxCell>
        <mxCell id="2xEB3IxOcom_yE4K_lx5-51" style="edgeStyle=orthogonalEdgeStyle;rounded=0;orthogonalLoop=1;jettySize=auto;html=1;entryX=0;entryY=0.5;entryDx=0;entryDy=0;strokeColor=#000000;" parent="1" source="2xEB3IxOcom_yE4K_lx5-41" target="18" edge="1">
          <mxGeometry relative="1" as="geometry" />
        </mxCell>
        <mxCell id="2xEB3IxOcom_yE4K_lx5-52" value="Consumer" style="swimlane;whiteSpace=wrap" parent="1" vertex="1">
          <mxGeometry x="830" y="120" width="220" height="620" as="geometry" />
        </mxCell>
        <mxCell id="2xEB3IxOcom_yE4K_lx5-53" value="Purchase" style="" parent="2xEB3IxOcom_yE4K_lx5-52" vertex="1">
          <mxGeometry x="55" y="450" width="110" height="50" as="geometry" />
        </mxCell>
        <mxCell id="2xEB3IxOcom_yE4K_lx5-54" value="" style="ellipse;shape=endState;fillColor=#000000;strokeColor=#ff0000" parent="2xEB3IxOcom_yE4K_lx5-52" vertex="1">
          <mxGeometry x="95" y="550" width="30" height="30" as="geometry" />
        </mxCell>
        <mxCell id="2xEB3IxOcom_yE4K_lx5-55" value="" style="endArrow=open;strokeColor=#FF0000;endFill=1;rounded=0" parent="2xEB3IxOcom_yE4K_lx5-52" source="2xEB3IxOcom_yE4K_lx5-53" target="2xEB3IxOcom_yE4K_lx5-54" edge="1">
          <mxGeometry relative="1" as="geometry" />
        </mxCell>
        <mxCell id="2xEB3IxOcom_yE4K_lx5-64" style="edgeStyle=orthogonalEdgeStyle;rounded=0;orthogonalLoop=1;jettySize=auto;html=1;entryX=0.5;entryY=0;entryDx=0;entryDy=0;strokeColor=#000000;" parent="2xEB3IxOcom_yE4K_lx5-52" source="2xEB3IxOcom_yE4K_lx5-63" target="2xEB3IxOcom_yE4K_lx5-53" edge="1">
          <mxGeometry relative="1" as="geometry" />
        </mxCell>
        <mxCell id="2xEB3IxOcom_yE4K_lx5-63" value="" style="ellipse;shape=startState;fillColor=#000000;strokeColor=#ff0000;" parent="2xEB3IxOcom_yE4K_lx5-52" vertex="1">
          <mxGeometry x="95" y="40" width="30" height="30" as="geometry" />
        </mxCell>
        <mxCell id="2xEB3IxOcom_yE4K_lx5-60" style="edgeStyle=orthogonalEdgeStyle;rounded=0;orthogonalLoop=1;jettySize=auto;html=1;entryX=0;entryY=0.5;entryDx=0;entryDy=0;strokeColor=#000000;" parent="1" source="2xEB3IxOcom_yE4K_lx5-56" target="33" edge="1">
          <mxGeometry relative="1" as="geometry" />
        </mxCell>
        <mxCell id="2xEB3IxOcom_yE4K_lx5-61" style="edgeStyle=orthogonalEdgeStyle;rounded=0;orthogonalLoop=1;jettySize=auto;html=1;entryX=0;entryY=0.5;entryDx=0;entryDy=0;strokeColor=#000000;" parent="1" source="33" target="2xEB3IxOcom_yE4K_lx5-53" edge="1">
          <mxGeometry relative="1" as="geometry" />
        </mxCell>
      </root>
    </mxGraphModel>
  </diagram>
</mxfile>
